# This file uses centimeters as units for non-parametric coordinates.

mtllib environment_01.mtl
g default
v -52.481019 0.000000 52.470103
v 52.831977 0.000000 52.470103
v -52.481019 0.000000 -54.120659
v 52.831977 0.000000 -54.120659
vt 0.000000 0.000000
vt 1.000000 0.000000
vt 0.000000 0.809457
vt 1.000000 0.809457
vn 0.000000 1.000000 0.000000
vn 0.000000 1.000000 0.000000
vn 0.000000 1.000000 0.000000
vn 0.000000 1.000000 0.000000
s off
g pasted__pPlane1 group
usemtl initialShadingGroup
f 1/1/1 2/2/2 4/4/3 3/3/4
g default
v -32.754635 0.000000 29.585402
v -33.011452 0.000000 29.585402
v -33.011452 7.125432 29.585402
v -32.754635 7.125432 29.585402
v -32.754635 0.000000 37.347355
v -33.011452 0.000000 37.347355
v -29.247200 7.125432 26.422993
v -29.247200 7.125432 26.149879
v -29.247200 0.000000 26.149879
v -29.247200 0.000000 26.422993
v -32.603500 0.000000 29.585402
v -32.603500 0.000000 37.347355
v -21.485249 0.000000 26.149879
v -21.485249 0.000000 26.422993
v -21.485249 0.000000 26.557831
v -29.247200 0.000000 26.557831
v -33.011452 7.125432 37.347355
v -21.485249 7.125432 26.149879
v -32.754635 7.125432 37.347355
v -21.485249 7.125432 26.422993
v -18.109585 7.125432 29.585402
v -17.738033 7.125432 29.585402
v -17.738033 0.000000 29.585402
v -18.109585 0.000000 29.585402
v -18.109585 0.000000 37.347355
v -18.145985 0.000000 37.347355
v -18.145985 0.000000 29.585402
v -17.738033 0.000000 37.347355
v -26.220318 16.369766 32.981182
v -24.643902 16.369766 32.981182
v -16.571125 8.747552 24.878902
v -34.293095 8.747552 24.878902
v -34.293095 8.747552 42.665752
v -26.220318 16.369766 34.563473
v -17.738033 7.125432 37.347355
v -32.754635 8.747552 26.422993
v -32.754635 0.000000 26.422993
v -32.754635 0.000000 41.121662
v -32.754635 8.747552 41.121662
v -18.109585 8.747552 26.422993
v -18.109585 0.000000 26.422993
v -18.109585 0.000000 41.121662
v -18.109585 8.747552 41.121662
v -18.109585 7.125432 37.347355
v -24.643902 16.369766 34.563473
v -16.571125 8.747552 42.665752
vt 0.532382 0.750000
vt 0.375000 0.750000
vt 0.375000 0.500000
vt 0.532382 0.500000
vt 0.532382 1.000000
vt 0.375000 1.000000
vt 0.457631 0.500000
vt 0.625000 0.500000
vt 0.625000 0.750000
vt 0.457631 0.750000
vt 0.625000 0.750000
vt 0.625000 1.000000
vt 0.625000 1.000000
vt 0.457631 1.000000
vt 0.434874 0.750000
vt 0.567375 0.750000
vt 0.567375 0.752293
vt 0.434874 0.752293
vt 0.125000 0.000000
vt 0.375000 0.000000
vt 0.375000 0.250000
vt 0.125000 0.250000
vt 0.625000 0.000000
vt 0.875000 0.000000
vt 0.875000 0.250000
vt 0.625000 0.250000
vt 0.532382 0.250000
vt 0.532382 0.000000
vt 0.457631 0.250000
vt 0.457631 0.000000
vt 0.397307 0.500000
vt 0.625000 0.500000
vt 0.625000 0.750000
vt 0.397307 0.750000
vt 0.625000 0.803787
vt 0.625000 0.935805
vt 0.624379 0.935805
vt 0.624379 0.803787
vt 0.625000 1.000000
vt 0.397307 1.000000
vt 0.375000 0.500000
vt 0.625000 0.500000
vt 0.625000 0.750000
vt 0.375000 0.750000
vt 0.125000 0.000000
vt 0.375000 0.000000
vt 0.375000 0.250000
vt 0.125000 0.250000
vt 0.625000 0.000000
vt 0.875000 0.000000
vt 0.875000 0.250000
vt 0.625000 0.250000
vt 0.125000 0.215701
vt 0.125000 0.000000
vt 0.178787 0.000000
vt 0.178787 0.175702
vt 0.310805 0.175702
vt 0.310805 0.000000
vt 0.375000 0.000000
vt 0.375000 0.215701
vt 0.625000 0.534299
vt 0.625000 0.750000
vt 0.567375 0.574298
vt 0.434874 0.574298
vt 0.375000 0.750000
vt 0.375000 0.534299
vt 0.625000 0.000000
vt 0.625000 0.215701
vt 0.397307 0.250000
vt 0.397307 0.000000
vt 0.625000 0.250000
vt 0.625000 0.000000
vt 0.875000 0.000000
vt 0.875000 0.250000
vt 0.603297 0.978297
vt 0.603297 0.771703
vt 0.396703 0.771703
vt 0.625000 1.000000
vt 0.396703 0.978297
vt 0.375000 1.000000
vt 0.689195 0.000000
vt 0.689195 0.175702
vt 0.821213 0.175702
vt 0.821213 0.000000
vt 0.875000 0.000000
vt 0.875000 0.215701
vt 0.625000 1.000000
vt 0.375000 1.000000
vt 0.375000 0.935805
vt 0.377580 0.935805
vt 0.377580 0.803787
vt 0.375000 0.803787
vn 0.000000 0.000000 -1.000000
vn 0.000000 0.000000 -1.000000
vn 0.000000 0.000000 -1.000000
vn 0.000000 0.000000 -1.000000
vn 0.000000 -1.000000 0.000000
vn 0.000000 -1.000000 0.000000
vn 0.000000 -1.000000 0.000000
vn 0.000000 -1.000000 0.000000
vn -1.000000 0.000000 0.000000
vn -1.000000 0.000000 0.000000
vn -1.000000 0.000000 0.000000
vn -1.000000 0.000000 0.000000
vn 0.000000 -1.000000 0.000000
vn 0.000000 -1.000000 0.000000
vn 0.000000 -1.000000 0.000000
vn 0.000000 -1.000000 0.000000
vn 0.000000 -1.000000 0.000000
vn 0.000000 -1.000000 0.000000
vn 0.000000 -1.000000 0.000000
vn 0.000000 -1.000000 0.000000
vn -1.000000 0.000000 0.000000
vn -1.000000 0.000000 0.000000
vn -1.000000 0.000000 0.000000
vn -1.000000 0.000000 0.000000
vn 0.000000 0.000000 -1.000000
vn 0.000000 0.000000 -1.000000
vn 0.000000 0.000000 -1.000000
vn 0.000000 0.000000 -1.000000
vn 0.000000 1.000000 0.000000
vn 0.000000 1.000000 0.000000
vn 0.000000 1.000000 0.000000
vn 0.000000 1.000000 0.000000
vn 0.000000 0.000000 1.000000
vn 0.000000 0.000000 1.000000
vn 0.000000 0.000000 1.000000
vn 0.000000 0.000000 1.000000
vn 0.000000 1.000000 0.000000
vn 0.000000 1.000000 0.000000
vn 0.000000 1.000000 0.000000
vn 0.000000 1.000000 0.000000
vn 1.000000 0.000000 0.000000
vn 1.000000 0.000000 0.000000
vn 1.000000 0.000000 0.000000
vn 1.000000 0.000000 0.000000
vn 0.000000 0.000000 -1.000000
vn 0.000000 0.000000 -1.000000
vn 0.000000 0.000000 -1.000000
vn 0.000000 0.000000 -1.000000
vn 0.000000 -1.000000 0.000000
vn 0.000000 -1.000000 0.000000
vn 0.000000 -1.000000 0.000000
vn 0.000000 -1.000000 0.000000
vn 0.000000 -1.000000 0.000000
vn 0.000000 -1.000000 0.000000
vn 0.000000 0.728355 -0.685200
vn 0.000000 0.728355 -0.685200
vn 0.000000 0.728355 -0.685200
vn 0.000000 0.728355 -0.685200
vn -0.686525 0.727106 0.000000
vn -0.686525 0.727106 0.000000
vn -0.686525 0.727106 0.000000
vn -0.686525 0.727106 0.000000
vn 1.000000 0.000000 0.000000
vn 1.000000 0.000000 0.000000
vn 1.000000 0.000000 0.000000
vn 1.000000 0.000000 0.000000
vn -1.000000 -0.000000 0.000000
vn -1.000000 -0.000000 0.000000
vn -1.000000 -0.000000 0.000000
vn -1.000000 -0.000000 0.000000
vn -1.000000 -0.000000 0.000000
vn -1.000000 -0.000000 0.000000
vn -1.000000 -0.000000 0.000000
vn -1.000000 -0.000000 0.000000
vn 0.000000 0.000000 -1.000000
vn 0.000000 0.000000 -1.000000
vn 0.000000 0.000000 -1.000000
vn 0.000000 0.000000 -1.000000
vn 0.000000 0.000000 -1.000000
vn 0.000000 0.000000 -1.000000
vn 0.000000 0.000000 -1.000000
vn 0.000000 0.000000 -1.000000
vn 0.000000 0.000000 1.000000
vn 0.000000 0.000000 1.000000
vn 0.000000 0.000000 1.000000
vn 0.000000 0.000000 1.000000
vn 0.000000 1.000000 0.000000
vn 0.000000 1.000000 0.000000
vn 0.000000 1.000000 0.000000
vn 0.000000 1.000000 0.000000
vn 0.000000 0.000000 1.000000
vn 0.000000 0.000000 1.000000
vn 0.000000 0.000000 1.000000
vn 0.000000 0.000000 1.000000
vn 0.000000 1.000000 0.000000
vn 0.000000 1.000000 0.000000
vn 0.000000 1.000000 0.000000
vn 0.000000 1.000000 0.000000
vn 0.686525 0.727107 0.000000
vn 0.686525 0.727107 0.000000
vn 0.686525 0.727107 0.000000
vn 0.686525 0.727107 0.000000
vn 0.000000 0.728355 0.685200
vn 0.000000 0.728355 0.685200
vn 0.000000 0.728355 0.685200
vn 0.000000 0.728355 0.685200
vn 0.000000 -1.000000 -0.000000
vn 0.000000 -1.000000 0.000000
vn 0.000000 -1.000000 -0.000000
vn 0.000000 -1.000000 -0.000000
vn 0.000000 -1.000000 0.000000
vn 0.000000 -1.000000 -0.000000
vn 0.000000 -1.000000 -0.000000
vn 0.000000 -1.000000 -0.000000
vn 1.000000 0.000000 0.000000
vn 1.000000 0.000000 0.000000
vn 1.000000 0.000000 0.000000
vn 1.000000 0.000000 0.000000
vn 1.000000 0.000000 0.000000
vn 1.000000 0.000000 0.000000
vn 1.000000 0.000000 0.000000
vn 1.000000 0.000000 0.000000
vn 0.000000 -1.000000 0.000000
vn 0.000000 -1.000000 0.000000
vn 0.000000 -1.000000 0.000000
vn 0.000000 -1.000000 0.000000
s off
g pCube6
usemtl initialShadingGroup
f 5/5/5 6/6/6 7/7/7 8/8/8
s 1
f 9/9/9 10/10/10 6/6/11 5/5/12
s off
f 11/11/13 12/12/14 13/13/15 14/14/16
s 1
f 5/5/12 15/15/17 16/16/18 9/9/9
f 14/14/19 13/13/20 17/17/21 18/18/22
f 14/19/19 18/20/22 19/21/23 20/22/24
s off
f 6/23/25 10/24/26 21/25/27 7/26/28
f 17/27/29 13/28/30 12/29/31 22/30/32
f 8/8/33 7/7/34 21/25/35 23/31/36
f 23/31/37 21/25/38 10/24/39 9/32/40
f 24/33/41 22/30/42 12/12/43 11/11/44
f 18/34/45 17/27/46 22/30/47 24/33/48
f 25/35/49 26/36/50 27/37/51 28/38/52
s 1
f 28/39/53 29/40/54 30/41/55 31/42/56
f 28/38/53 27/37/57 32/43/58 29/44/54
s off
f 33/45/59 34/46/60 35/47/61 36/48/62
f 36/49/63 37/50/64 38/51/65 33/52/66
f 32/53/67 27/54/68 26/55/69 39/56/70
f 40/57/71 41/58/72 5/59/73 8/60/74 23/61/75 9/62/76 42/63/77 43/64/78
f 44/65/79 45/66/80 18/20/81 24/67/82 11/68/83 14/19/84 41/69/85 40/70/86
f 43/64/87 42/63/88 46/71/89 47/72/90
f 48/73/91 39/56/92 26/36/93 25/35/94
f 29/74/95 32/53/96 39/56/97 48/73/98
f 38/51/99 49/75/100 34/46/101 33/45/102
f 50/76/103 35/77/104 34/78/105 49/75/106
f 37/50/107 50/76/108 49/75/109 38/51/110
s 4
f 47/79/111 44/80/112 40/81/113 36/48/114 35/47/115 50/82/116
f 36/48/114 40/81/113 43/83/117 47/79/111 50/82/116 37/84/118
s off
f 47/72/119 46/71/120 29/85/121 48/86/122 25/87/123 28/88/124 45/89/125 44/90/126
s 1
f 41/69/127 14/19/19 20/22/24 19/21/23 18/20/22 45/66/128 28/39/53 31/42/56 30/41/55 29/40/54 46/91/129 42/92/130 9/93/9 16/94/18 15/95/17 5/96/12
